<?xml version="1.0" encoding="UTF-8"?>
<svg width="481px" height="84px" viewBox="0 0 481 84" version="1.1" xmlns="http://www.w3.org/2000/svg" xmlns:xlink="http://www.w3.org/1999/xlink">
    <title>logo</title>
    <g id="Page-1" stroke="none" stroke-width="1" fill="none" fill-rule="evenodd">
        <g id="logo" transform="translate(-0.000000, -0.000000)" fill="#000000" fill-rule="nonzero">
            <path d="M59.02,8.43093943 C60.54,9.29193943 61.7,10.0719394 61.7,10.0719394 L52.7,23.1519394 C49.553,21.2679394 46.301,19.5659394 42.96,18.0509394 C37.8,15.7009394 32.42,14.6119394 26.73,15.9819394 C22.6,16.9819394 20.29,20.2619394 20.85,24.1319394 C21.156,26.5749394 22.848,28.6209394 25.19,29.3819394 C29.85,31.0419394 34.59,32.5119394 39.34,33.8909394 C44.82,35.4819394 50.25,37.1519394 55.08,40.3009394 C60.503,43.6099394 63.888,49.4319394 64.08,55.7819394 C65.29,68.5719394 57.18,81.1009394 41.55,83.2619394 C26.8,85.2619394 13.09,80.9619394 1.43,71.6519394 C0.28,70.7719394 0,70.5019394 0,70.5019394 L10.28,58.1809394 C13.048,60.3159394 16.011,62.1839394 19.13,63.7619394 C25.219,67.2519394 32.336,68.5039394 39.25,67.3009394 C40.612,67.0389394 41.92,66.5489394 43.12,65.8509394 C47.85,63.0919394 48.12,56.5019394 43.21,54.0509394 C39.07,51.9619394 34.46,50.7719394 30.03,49.2619394 C25.35,47.6519394 20.52,46.4219394 15.96,44.5119394 C6.96,40.7209394 2.96,33.7409394 3.28,23.5119394 C3.58,12.8619394 11.28,3.04193943 23.77,0.671939425 C33.01,-1.12906057 44.85,0.441939425 59.02,8.43093943 M376.6,21.2409394 L388.03,48.5319394 L365.16,48.5319394 L376.6,21.2409394 Z M385.09,1.06093943 L368.09,1.06093943 L333.09,82.4019394 L351.27,82.4019394 L358.9,64.1609394 L394.24,64.1609394 L401.87,82.4019394 L420.05,82.4019394 L385.09,1.06093943 Z M277.7,21.2409394 L289.13,48.5319394 L266.26,48.5319394 L277.7,21.2409394 Z M286.19,1.06093943 L269.19,1.06093943 L234.19,82.4019394 L252.38,82.4019394 L260,64.1609394 L295.42,64.1609394 L303.05,82.4019394 L321.23,82.4019394 L286.19,1.06093943 Z M191.53,40.6409394 C189.465,40.6219394 187.402,40.4949394 185.35,40.2619394 C176.22,39.2119394 171.83,29.6919394 176.76,21.9109394 C179.12,18.1609394 183.05,16.9619394 187.22,16.8109394 C192.22,16.6209394 202.15,16.6809394 202.15,16.6809394 L202.15,40.6809394 C202.15,40.6809394 193.98,40.6609394 191.53,40.6409394 L191.53,40.6409394 Z M179.95,1.90193943 C166.85,3.33093943 157.63,11.9819394 157.15,26.6609394 C156.75,38.8109394 161.95,47.5019394 173.15,52.4909394 C173.55,52.6719394 174.87,53.2409394 174.89,53.2619394 L154.89,82.1919394 L175.37,82.1919394 L202.15,41.5809394 L202.15,82.4619394 L218.47,82.4619394 L218.47,1.35093943 C218.47,1.35093943 188.01,1.03193943 179.95,1.90193943 L179.95,1.90193943 Z M141.36,1.16093943 L80.34,1.16093943 L80.34,17.5509394 L101.8,17.5509394 L101.8,82.2519394 L119.79,82.2519394 L119.79,17.5509394 L141.36,17.5509394 L141.36,1.16093943 M480.05,1.16093943 L419.02,1.16093943 L419.02,17.5509394 L440.48,17.5509394 L440.48,82.4309394 L458.47,82.4309394 L458.47,17.5509394 L480.05,17.5509394 L480.05,1.16093943" id="Shape"></path>
        </g>
    </g>
</svg>