<svg xmlns="http://www.w3.org/2000/svg" viewBox="0 0 75 32">
  <defs>
    <style>
      .cls-1{fill:#010101}.cls-2{fill:#010101}
    </style>
  </defs>
  <g id="Laag_2" data-name="Laag 2">
    <g id="Laag_1-2" data-name="Laag 1">
      <path class="cls-1" d="M60.94 21.09A5.4 5.4 0 0158.26 19a2.26 2.26 0 010-2.45c1.09-2 5-2.48 7.33-2.39L75 0H21.33l-4.82 7.23-2.12 3.18a5.35 5.35 0 012.84 2.13 2.23 2.23 0 010 2.44c-1.12 2-5.18 2.51-7.51 2.38l-2.24 3.43L0 32h53.67zm-9.28 7.16H7l4.76-7.15a16.81 16.81 0 003.52-.59 8.34 8.34 0 005.27-3.72 6 6 0 00-.12-6.19 8.13 8.13 0 00-.89-1.16l3.79-5.69H68l-4.48 6.73a17.06 17.06 0 00-3.32.56 8.38 8.38 0 00-5.26 3.72 6 6 0 00.12 6.2 7.63 7.63 0 00.78 1z"/>
      <path class="cls-1" d="M24 27h1l2.67-4h-1L24 27zM28 21h1l2.67-4h-1L28 21zM32 15h1l2.67-4h-1L32 15zM36 9h1l2.67-4h-1L36 9z"/>
      <path class="cls-2" d="M60.94 21.09A5.4 5.4 0 0158.26 19a2.26 2.26 0 010-2.45c1.09-2 5-2.48 7.33-2.39L75 0H21.33l-4.82 7.23-2.12 3.18a5.35 5.35 0 012.84 2.13 2.23 2.23 0 010 2.44c-1.12 2-5.18 2.51-7.51 2.38l-2.24 3.43L0 32h53.67zm-9.28 7.16H7l4.76-7.15a16.81 16.81 0 003.52-.59 8.34 8.34 0 005.27-3.72 6 6 0 00-.12-6.19 8.13 8.13 0 00-.89-1.16l3.79-5.69H68l-4.48 6.73a17.06 17.06 0 00-3.32.56 8.38 8.38 0 00-5.26 3.72 6 6 0 00.12 6.2 7.63 7.63 0 00.78 1z"/>
      <path class="cls-2" d="M24 27h1l2.67-4h-1L24 27zM28 21h1l2.67-4h-1L28 21zM32 15h1l2.67-4h-1L32 15zM36 9h1l2.67-4h-1L36 9z"/>
      <path class="cls-2" d="M60.94 21.09A5.4 5.4 0 0158.26 19a2.26 2.26 0 010-2.45c1.09-2 5-2.48 7.33-2.39L75 0H21.33l-4.82 7.23-2.12 3.18a5.35 5.35 0 012.84 2.13 2.23 2.23 0 010 2.44c-1.12 2-5.18 2.51-7.51 2.38l-2.24 3.43L0 32h53.67zm-9.28 7.16H7l4.76-7.15a16.81 16.81 0 003.52-.59 8.34 8.34 0 005.27-3.72 6 6 0 00-.12-6.19 8.13 8.13 0 00-.89-1.16l3.79-5.69H68l-4.48 6.73a17.06 17.06 0 00-3.32.56 8.38 8.38 0 00-5.26 3.72 6 6 0 00.12 6.2 7.63 7.63 0 00.78 1z"/>
      <path class="cls-2" d="M24 27h1l2.67-4h-1L24 27zM28 21h1l2.67-4h-1L28 21zM32 15h1l2.67-4h-1L32 15zM36 9h1l2.67-4h-1L36 9z"/>
    </g>
  </g>
</svg>
